# Blender v2.93.6 OBJ File: 'angle.blend'
# www.blender.org
mtllib angle.mtl
o Цилиндр
v 5.000000 -0.250000 0.000000
v 5.000000 0.250000 0.000000
v 4.903926 -0.250000 0.975452
v 4.903926 0.250000 0.975452
v 4.619398 -0.250000 1.913417
v 4.619398 0.250000 1.913417
v 4.157348 -0.250000 2.777851
v 4.157348 0.250000 2.777851
v 3.535534 -0.250000 3.535534
v 3.535534 0.250000 3.535534
v 2.777851 -0.250000 4.157348
v 2.777851 0.250000 4.157348
v 1.913417 -0.250000 4.619398
v 1.913417 0.250000 4.619398
v 0.975452 -0.250000 4.903926
v 0.975452 0.250000 4.903926
v -0.000000 -0.250000 5.000000
v -0.000000 0.250000 5.000000
v 0.000000 0.250000 0.000000
v 5.000000 -0.250000 0.000000
v 5.000000 -0.250000 0.000000
v 0.000000 -0.250000 0.000000
v 5.000000 -0.250000 0.000000
v 5.000000 -0.250000 0.000000
v 5.000000 -0.250000 0.000000
v 5.000000 0.250000 0.000000
v 0.000000 -0.250000 0.000000
v 5.000000 -0.250000 0.000000
v 0.000000 -0.250000 0.000000
v 4.997502 0.250103 0.001186
v -0.002498 0.250103 0.001186
v -0.000172 0.251504 4.998409
v -0.000171 0.251504 -0.001591
vt 0.750000 0.500000
vt 0.750000 1.000000
vt 0.718750 1.000000
vt 0.718750 0.500000
vt 0.687500 1.000000
vt 0.687500 0.500000
vt 0.656250 1.000000
vt 0.656250 0.500000
vt 0.625000 1.000000
vt 0.625000 0.500000
vt 0.593750 1.000000
vt 0.593750 0.500000
vt 0.562500 1.000000
vt 0.562500 0.500000
vt 0.531250 1.000000
vt 0.531250 0.500000
vt 0.500000 1.000000
vt 0.500000 0.500000
vt 0.490000 0.250000
vt 0.250000 0.250000
vt 0.250000 0.010000
vt 0.296822 0.014612
vt 0.341844 0.028269
vt 0.383337 0.050447
vt 0.419706 0.080294
vt 0.449553 0.116663
vt 0.471731 0.158156
vt 0.485388 0.203178
vt 0.990000 0.250000
vt 0.750000 0.250000
vt 0.750000 0.250000
vt 0.990000 0.250000
vt 0.750000 0.250000
vt 0.990000 0.250000
vt 0.990000 0.250000
vt 0.990000 0.250000
vt 0.990000 0.250000
vt 0.750000 0.500000
vt 0.750000 1.000000
vt 0.750000 0.010000
vt 0.985388 0.203178
vt 0.971731 0.158156
vt 0.949553 0.116663
vt 0.919706 0.080294
vt 0.883337 0.050447
vt 0.841844 0.028269
vt 0.796822 0.014612
vt 0.750000 0.250000
vt 0.990000 0.250000
vt 0.750000 0.010000
vt 0.750000 0.250000
vn 0.9952 0.0000 0.0980
vn 0.9569 0.0000 0.2903
vn 0.8819 0.0000 0.4714
vn 0.7730 0.0000 0.6344
vn 0.6344 0.0000 0.7730
vn 0.4714 0.0000 0.8819
vn 0.2903 0.0000 0.9569
vn 0.0980 0.0000 0.9952
vn 0.0000 1.0000 0.0000
vn 0.0000 0.0000 1.0000
vn 0.0000 -1.0000 0.0000
vn 0.0000 0.0024 -1.0000
vn -1.0000 -0.0003 -0.0000
usemtl None
s off
f 1/1/1 2/2/1 4/3/1 3/4/1
f 3/4/2 4/3/2 6/5/2 5/6/2
f 5/6/3 6/5/3 8/7/3 7/8/3
f 7/8/4 8/7/4 10/9/4 9/10/4
f 9/10/5 10/9/5 12/11/5 11/12/5
f 11/12/6 12/11/6 14/13/6 13/14/6
f 13/14/7 14/13/7 16/15/7 15/16/7
f 15/16/8 16/15/8 18/17/8 17/18/8
f 2/19/9 19/20/9 18/21/9 16/22/9 14/23/9 12/24/9 10/25/9 8/26/9 6/27/9 4/28/9
f 21/29/10 22/30/10 27/31/10 20/32/10
f 20/32/10 27/31/10 29/33/10 28/34/10
f 1/35/10 21/29/10 24/36/10 23/37/10
f 2/2/10 1/1/10 25/38/10 26/39/10
f 17/40/11 22/30/11 21/29/11 1/35/11 3/41/11 5/42/11 7/43/11 9/44/11 11/45/11 13/46/11 15/47/11
f 28/34/12 29/33/12 31/48/12 30/49/12
f 22/30/13 17/40/13 32/50/13 33/51/13
