# Blender v2.93.6 OBJ File: 'hill.blend'
# www.blender.org
mtllib hill.mtl
o Cube
v 2.500000 0.297808 -5.000000
v 2.500000 -0.202192 -5.000000
v 2.500000 0.297808 5.000000
v 2.500000 -0.202192 5.000000
v -2.500000 0.297808 -5.000000
v -2.500000 -0.202192 -5.000000
v -2.500000 0.297808 5.000000
v -2.500000 -0.202192 5.000000
v -2.500000 0.397280 0.000000
v 2.500000 0.897280 0.000000
v -2.500000 0.897280 0.000000
v 2.500000 0.397280 0.000000
v -2.500000 0.097544 2.500000
v 2.500000 0.597544 2.500000
v -2.500000 0.597544 2.500000
v 2.500000 0.097544 2.500000
v -2.500000 -0.097682 3.750000
v 2.500000 0.402318 3.750000
v -2.500000 0.402318 3.750000
v 2.500000 -0.097682 3.750000
v -2.500000 0.797368 1.250000
v 2.500000 0.297368 1.250000
v -2.500000 0.297368 1.250000
v 2.500000 0.797368 1.250000
v -2.500000 0.593843 -2.500000
v 2.500000 0.093843 -2.500000
v -2.500000 0.093843 -2.500000
v 2.500000 0.593843 -2.500000
v -2.500000 0.293667 -1.250000
v 2.500000 0.793667 -1.250000
v -2.500000 0.793667 -1.250000
v 2.500000 0.293667 -1.250000
v -2.500000 0.397720 -3.750000
v 2.500000 -0.102280 -3.750000
v -2.500000 -0.102280 -3.750000
v 2.500000 0.397720 -3.750000
v -2.500000 -0.202192 4.375000
v 2.500000 0.297808 4.375000
v -2.500000 0.297808 4.375000
v 2.500000 -0.202192 4.375000
v -2.500000 0.496845 3.125000
v 2.500000 -0.003155 3.125000
v -2.500000 -0.003155 3.125000
v 2.500000 0.496845 3.125000
v -2.500000 0.201156 1.875000
v 2.500000 0.701156 1.875000
v -2.500000 0.701156 1.875000
v 2.500000 0.201156 1.875000
v -2.500000 0.897280 0.640984
v 2.500000 0.397280 0.640984
v -2.500000 0.397280 0.640984
v 2.500000 0.897280 0.640984
v -2.500000 0.397280 -0.625000
v 2.500000 0.897280 -0.625000
v -2.500000 0.897280 -0.625000
v 2.500000 0.397280 -0.625000
v -2.500000 0.701156 -1.875000
v 2.500000 0.201156 -1.875000
v -2.500000 0.201156 -1.875000
v 2.500000 0.701156 -1.875000
v -2.500000 0.001332 -3.125000
v 2.500000 0.501332 -3.125000
v -2.500000 0.501332 -3.125000
v 2.500000 0.001332 -3.125000
v -2.500000 0.297808 -4.375000
v 2.500000 -0.202192 -4.375000
v -2.500000 -0.202192 -4.375000
v 2.500000 0.297808 -4.375000
v -2.500000 0.897280 0.320492
v 2.500000 0.397280 0.320492
v -2.500000 0.397280 0.320492
v 2.500000 0.897280 0.320492
v -2.500000 0.397280 -0.312500
v 2.500000 0.897280 -0.312500
v -2.500000 0.897280 -0.312500
v 2.500000 0.397280 -0.312500
vt 0.625000 0.734375
vt 0.875000 0.734375
vt 0.875000 0.750000
vt 0.625000 0.750000
vt 0.375000 0.750000
vt 0.625000 1.000000
vt 0.375000 1.000000
vt 0.375000 0.234375
vt 0.625000 0.234375
vt 0.625000 0.250000
vt 0.375000 0.250000
vt 0.125000 0.734375
vt 0.375000 0.734375
vt 0.125000 0.750000
vt 0.625000 0.500000
vt 0.375000 0.500000
vt 0.375000 0.617188
vt 0.625000 0.617188
vt 0.625000 0.625000
vt 0.375000 0.625000
vt 0.125000 0.617188
vt 0.125000 0.625000
vt 0.375000 0.116988
vt 0.625000 0.116988
vt 0.625000 0.125000
vt 0.375000 0.125000
vt 0.875000 0.617188
vt 0.875000 0.625000
vt 0.375000 0.046875
vt 0.625000 0.046875
vt 0.625000 0.062500
vt 0.375000 0.062500
vt 0.375000 0.671875
vt 0.625000 0.671875
vt 0.625000 0.687500
vt 0.375000 0.687500
vt 0.125000 0.671875
vt 0.125000 0.687500
vt 0.875000 0.671875
vt 0.875000 0.687500
vt 0.375000 0.015625
vt 0.625000 0.015625
vt 0.625000 0.031250
vt 0.375000 0.031250
vt 0.375000 0.703125
vt 0.625000 0.703125
vt 0.625000 0.718750
vt 0.375000 0.718750
vt 0.125000 0.703125
vt 0.125000 0.718750
vt 0.875000 0.703125
vt 0.875000 0.718750
vt 0.625000 0.641025
vt 0.875000 0.641025
vt 0.875000 0.656250
vt 0.625000 0.656250
vt 0.125000 0.641025
vt 0.375000 0.641025
vt 0.375000 0.656250
vt 0.125000 0.656250
vt 0.375000 0.078125
vt 0.625000 0.078125
vt 0.625000 0.093750
vt 0.375000 0.093750
vt 0.625000 0.546875
vt 0.875000 0.546875
vt 0.875000 0.562500
vt 0.625000 0.562500
vt 0.125000 0.546875
vt 0.375000 0.546875
vt 0.375000 0.562500
vt 0.125000 0.562500
vt 0.375000 0.171875
vt 0.625000 0.171875
vt 0.625000 0.187500
vt 0.375000 0.187500
vt 0.375000 0.140625
vt 0.625000 0.140625
vt 0.625000 0.156250
vt 0.375000 0.156250
vt 0.625000 0.578125
vt 0.875000 0.578125
vt 0.875000 0.593750
vt 0.625000 0.593750
vt 0.125000 0.578125
vt 0.375000 0.578125
vt 0.375000 0.593750
vt 0.125000 0.593750
vt 0.375000 0.515625
vt 0.625000 0.515625
vt 0.625000 0.531250
vt 0.375000 0.531250
vt 0.125000 0.515625
vt 0.125000 0.531250
vt 0.875000 0.515625
vt 0.875000 0.531250
vt 0.375000 0.203125
vt 0.625000 0.203125
vt 0.625000 0.218750
vt 0.375000 0.218750
vt 0.375000 0.000000
vt 0.625000 0.000000
vt 0.375000 0.633012
vt 0.625000 0.633012
vt 0.125000 0.633012
vt 0.875000 0.633012
vt 0.625000 0.108975
vt 0.375000 0.108975
vt 0.375000 0.132812
vt 0.625000 0.132812
vt 0.875000 0.609375
vt 0.625000 0.609375
vt 0.375000 0.609375
vt 0.125000 0.609375
vt 0.875000 0.500000
vt 0.125000 0.500000
vn 0.0000 1.0000 0.0000
vn 0.0000 0.0000 1.0000
vn -1.0000 0.0000 0.0000
vn 0.0000 -1.0000 0.0000
vn 1.0000 0.0000 0.0000
vn 0.0000 0.0000 -1.0000
vn 0.0000 -0.9865 -0.1635
vn 0.0000 0.9865 0.1635
vn 0.0000 -0.9888 -0.1495
vn 0.0000 0.9888 0.1495
vn 0.0000 0.9868 0.1619
vn 0.0000 -0.9868 -0.1619
vn 0.0000 0.9892 -0.1464
vn 0.0000 -0.9892 0.1464
vn 0.0000 -0.9875 0.1579
vn 0.0000 0.9875 -0.1579
vn 0.0000 -0.9863 -0.1649
vn 0.0000 0.9863 0.1649
vn 0.0000 0.9873 0.1591
vn 0.0000 -0.9873 -0.1591
vn 0.0000 0.9884 0.1521
vn 0.0000 -0.9884 -0.1521
vn 0.0000 0.9865 -0.1635
vn 0.0000 -0.9865 0.1635
vn 0.0000 -0.9856 0.1692
vn 0.0000 0.9856 -0.1692
usemtl Material
s off
f 38/1/1 39/2/1 7/3/1 3/4/1
f 4/5/2 3/4/2 7/6/2 8/7/2
f 67/8/3 65/9/3 5/10/3 6/11/3
f 37/12/4 40/13/4 4/5/4 8/14/4
f 40/13/5 38/1/5 3/4/5 4/5/5
f 6/11/6 5/10/6 1/15/6 2/16/6
f 76/17/5 74/18/5 10/19/5 12/20/5
f 73/21/4 76/17/4 12/20/4 9/22/4
f 71/23/3 69/24/3 11/25/3 9/26/3
f 74/18/1 75/27/1 11/28/1 10/19/1
f 43/29/3 41/30/3 15/31/3 13/32/3
f 48/33/5 46/34/5 14/35/5 16/36/5
f 45/37/7 48/33/7 16/36/7 13/38/7
f 46/34/8 47/39/8 15/40/8 14/35/8
f 37/41/3 39/42/3 19/43/3 17/44/3
f 42/45/5 44/46/5 18/47/5 20/48/5
f 43/49/9 42/45/9 20/48/9 17/50/9
f 44/46/10 41/51/10 19/52/10 18/47/10
f 52/53/11 49/54/11 21/55/11 24/56/11
f 51/57/12 50/58/12 22/59/12 23/60/12
f 50/58/5 52/53/5 24/56/5 22/59/5
f 45/61/3 47/62/3 21/63/3 23/64/3
f 62/65/13 63/66/13 25/67/13 28/68/13
f 61/69/14 64/70/14 26/71/14 27/72/14
f 64/70/5 62/65/5 28/68/5 26/71/5
f 59/73/3 57/74/3 25/75/3 27/76/3
f 53/77/3 55/78/3 31/79/3 29/80/3
f 60/81/13 57/82/13 31/83/13 30/84/13
f 59/85/14 58/86/14 32/87/14 29/88/14
f 58/86/5 60/81/5 30/84/5 32/87/5
f 66/89/5 68/90/5 36/91/5 34/92/5
f 67/93/15 66/89/15 34/92/15 35/94/15
f 68/90/16 65/95/16 33/96/16 36/91/16
f 61/97/3 63/98/3 33/99/3 35/100/3
f 8/101/3 7/102/3 39/42/3 37/41/3
f 20/48/5 18/47/5 38/1/5 40/13/5
f 17/50/17 20/48/17 40/13/17 37/12/17
f 18/47/18 19/52/18 39/2/18 38/1/18
f 14/35/19 15/40/19 41/51/19 44/46/19
f 13/38/20 16/36/20 42/45/20 43/49/20
f 16/36/5 14/35/5 44/46/5 42/45/5
f 17/44/3 19/43/3 41/30/3 43/29/3
f 13/32/3 15/31/3 47/62/3 45/61/3
f 24/56/21 21/55/21 47/39/21 46/34/21
f 23/60/22 22/59/22 48/33/22 45/37/22
f 22/59/5 24/56/5 46/34/5 48/33/5
f 70/103/5 72/104/5 52/53/5 50/58/5
f 71/105/4 70/103/4 50/58/4 51/57/4
f 72/104/1 69/106/1 49/54/1 52/53/1
f 23/64/3 21/63/3 49/107/3 51/108/3
f 73/109/3 75/110/3 55/78/3 53/77/3
f 30/84/23 31/83/23 55/111/23 54/112/23
f 29/88/24 32/87/24 56/113/24 53/114/24
f 32/87/5 30/84/5 54/112/5 56/113/5
f 26/71/5 28/68/5 60/81/5 58/86/5
f 27/72/25 26/71/25 58/86/25 59/85/25
f 28/68/26 25/67/26 57/82/26 60/81/26
f 29/80/3 31/79/3 57/74/3 59/73/3
f 27/76/3 25/75/3 63/98/3 61/97/3
f 34/92/5 36/91/5 62/65/5 64/70/5
f 35/94/24 34/92/24 64/70/24 61/69/24
f 36/91/23 33/96/23 63/66/23 62/65/23
f 1/15/1 5/115/1 65/95/1 68/90/1
f 6/116/4 2/16/4 66/89/4 67/93/4
f 2/16/5 1/15/5 68/90/5 66/89/5
f 35/100/3 33/99/3 65/9/3 67/8/3
f 10/19/1 11/28/1 69/106/1 72/104/1
f 9/22/4 12/20/4 70/103/4 71/105/4
f 12/20/5 10/19/5 72/104/5 70/103/5
f 51/108/3 49/107/3 69/24/3 71/23/3
f 9/26/3 11/25/3 75/110/3 73/109/3
f 54/112/1 55/111/1 75/27/1 74/18/1
f 53/114/4 56/113/4 76/17/4 73/21/4
f 56/113/5 54/112/5 74/18/5 76/17/5
