# Blender v2.93.6 OBJ File: 'hole.blend'
# www.blender.org
mtllib hole.mtl
o Куб
v -2.500000 -0.250000 2.500000
v -2.500000 0.250000 2.500000
v -2.500000 -0.250000 -2.500000
v -2.500000 0.250000 -2.500000
v 2.500000 -0.250000 2.500000
v 2.500000 0.250000 2.500000
v 2.500000 -0.250000 -2.500000
v 2.500000 0.250000 -2.500000
v 0.000000 0.234108 -1.176942
v 0.229610 0.234108 -1.154328
v 0.234108 -0.000000 -1.176942
v 0.229610 -0.234108 -1.154328
v 0.450396 0.234108 -1.087353
v 0.459220 -0.000000 -1.108655
v 0.450396 -0.234108 -1.087353
v 0.653874 0.234108 -0.978592
v 0.666684 -0.000000 -0.997763
v 0.653874 -0.234108 -0.978592
v 0.832224 0.234108 -0.832224
v 0.848528 -0.000000 -0.848528
v 0.832224 -0.234108 -0.832224
v 0.978592 0.234108 -0.653874
v 0.997764 -0.000000 -0.666684
v 0.978592 -0.234108 -0.653874
v 1.087353 0.234108 -0.450396
v 1.108655 -0.000000 -0.459220
v 1.087353 -0.234108 -0.450396
v 1.154328 0.234108 -0.229610
v 1.176942 -0.000000 -0.234108
v 1.154328 -0.234108 -0.229610
v 1.176942 0.234108 0.000000
v 1.200000 -0.000000 0.000000
v 1.176942 -0.234108 0.000000
v 1.154328 0.234108 0.229610
v 1.176942 -0.000000 0.234109
v 1.154328 -0.234108 0.229610
v 1.087353 0.234108 0.450396
v 1.108655 -0.000000 0.459220
v 1.087353 -0.234108 0.450396
v 0.978592 0.234108 0.653874
v 0.997763 -0.000000 0.666684
v 0.978592 -0.234108 0.653874
v 0.832224 0.234108 0.832224
v 0.848527 -0.000000 0.848528
v 0.832224 -0.234108 0.832224
v 0.653874 0.234108 0.978592
v 0.666684 -0.000000 0.997763
v 0.653874 -0.234108 0.978592
v 0.450396 0.234108 1.087353
v 0.459220 -0.000000 1.108655
v 0.450396 -0.234108 1.087353
v 0.229610 0.234108 1.154327
v 0.234108 -0.000000 1.176942
v 0.229610 -0.234108 1.154327
v -0.000000 0.234108 1.176942
v -0.000000 -0.000000 1.199999
v -0.000000 -0.234108 1.176942
v -0.229610 0.234108 1.154327
v -0.234109 -0.000000 1.176942
v -0.229610 -0.234108 1.154327
v -0.450396 0.234108 1.087353
v -0.459220 -0.000000 1.108655
v -0.450396 -0.234108 1.087353
v -0.653874 0.234108 0.978591
v -0.666684 -0.000000 0.997763
v -0.653874 -0.234108 0.978591
v -0.832224 0.234108 0.832224
v -0.848528 -0.000000 0.848527
v -0.832224 -0.234108 0.832224
v -0.978591 0.234108 0.653874
v -0.997763 -0.000000 0.666683
v -0.978591 -0.234108 0.653874
v -1.087353 0.234108 0.450396
v -1.108655 -0.000000 0.459219
v -1.087353 -0.234108 0.450396
v -1.154327 0.234108 0.229610
v -1.176941 -0.000000 0.234108
v -1.154327 -0.234108 0.229610
v -1.176942 0.234108 -0.000000
v -1.199999 -0.000000 -0.000000
v -1.176942 -0.234108 -0.000000
v -1.154327 0.234108 -0.229610
v -1.176941 -0.000000 -0.234109
v -1.154327 -0.234108 -0.229610
v -1.087352 0.234108 -0.450396
v -1.108654 -0.000000 -0.459220
v -1.087352 -0.234108 -0.450396
v -0.978591 0.234108 -0.653874
v -0.997762 -0.000000 -0.666684
v -0.978591 -0.234108 -0.653874
v -0.832223 0.234108 -0.832224
v -0.848527 -0.000000 -0.848528
v -0.832223 -0.234108 -0.832224
v -0.653874 0.234108 -0.978591
v -0.666683 -0.000000 -0.997763
v -0.653874 -0.234108 -0.978591
v -0.450396 0.234108 -1.087352
v -0.459219 -0.000000 -1.108654
v -0.450396 -0.234108 -1.087352
v -0.229610 0.234108 -1.154327
v -0.234108 -0.000000 -1.176941
v -0.229610 -0.234108 -1.154327
v 0.000001 -0.000000 -1.199999
v 0.000000 -0.234108 -1.176942
v 0.228669 0.250000 1.149599
v 1.172122 -0.250000 0.000000
v -1.172121 -0.250000 -0.000000
v 1.149600 0.250000 -0.228669
v -0.000000 0.250000 1.172121
v 1.172122 0.250000 0.000000
v -1.149599 -0.250000 -0.228670
v -1.172121 0.250000 -0.000000
v -0.228670 0.250000 1.149599
v 1.149600 0.250000 0.228670
v -0.828815 -0.250000 -0.828815
v -0.000000 -0.250000 1.172121
v -1.149599 0.250000 -0.228670
v -0.448551 -0.250000 -1.082899
v -0.651196 -0.250000 -0.974583
v -0.228669 -0.250000 -1.149599
v 0.000000 -0.250000 -1.172121
v 0.651196 -0.250000 -0.974584
v 0.448552 -0.250000 -1.082899
v -0.228670 -0.250000 1.149599
v 0.228670 -0.250000 -1.149600
v 0.974583 -0.250000 0.651196
v 0.974584 -0.250000 -0.651196
v -1.082899 0.250000 -0.448551
v 1.149600 -0.250000 0.228670
v 1.149600 -0.250000 -0.228669
v 1.082899 -0.250000 -0.448551
v 1.082899 -0.250000 0.448552
v -0.448551 0.250000 1.082899
v 0.828815 -0.250000 -0.828815
v -1.082899 -0.250000 -0.448551
v -0.448551 -0.250000 1.082899
v -0.974583 -0.250000 -0.651196
v 1.082899 0.250000 0.448552
v -0.651196 -0.250000 0.974583
v -0.974583 0.250000 -0.651196
v 0.974583 0.250000 0.651196
v -0.651196 0.250000 0.974583
v -0.828815 0.250000 -0.828815
v -0.828815 0.250000 0.828815
v -1.149599 -0.250000 0.228669
v 0.828815 -0.250000 0.828815
v -0.974583 -0.250000 0.651196
v -0.828815 -0.250000 0.828815
v -1.082899 -0.250000 0.448551
v 0.448551 -0.250000 1.082899
v 0.228669 -0.250000 1.149599
v 0.651196 -0.250000 0.974583
v 0.828815 0.250000 0.828815
v -0.651196 0.250000 -0.974583
v 0.651196 0.250000 0.974583
v -0.974583 0.250000 0.651196
v -0.448551 0.250000 -1.082899
v -1.082899 0.250000 0.448551
v -0.228669 0.250000 -1.149599
v 0.448551 0.250000 1.082899
v -1.149599 0.250000 0.228669
v 0.228670 0.250000 -1.149600
v 0.651196 0.250000 -0.974584
v 0.448552 0.250000 -1.082899
v 0.000000 0.250000 -1.172122
v 0.828815 0.250000 -0.828815
v 0.974584 0.250000 -0.651196
v 1.082899 0.250000 -0.448551
vt 0.375000 0.000000
vt 0.625000 0.000000
vt 0.625000 0.250000
vt 0.375000 0.250000
vt 0.625000 0.500000
vt 0.375000 0.500000
vt 0.625000 0.750000
vt 0.375000 0.750000
vt 0.625000 1.000000
vt 0.375000 1.000000
vt 0.291441 0.583559
vt 0.291441 0.666441
vt 0.298729 0.657560
vt 0.304145 0.647428
vt 0.307480 0.636433
vt 0.308606 0.625000
vt 0.307480 0.613567
vt 0.304145 0.602572
vt 0.298729 0.592440
vt 0.125000 0.750000
vt 0.125000 0.500000
vt 0.282560 0.576271
vt 0.272428 0.570855
vt 0.261433 0.567520
vt 0.250000 0.566394
vt 0.238567 0.567520
vt 0.227572 0.570855
vt 0.217440 0.576271
vt 0.208559 0.583559
vt 0.201271 0.592440
vt 0.195855 0.602572
vt 0.192520 0.613567
vt 0.191394 0.625000
vt 0.192520 0.636433
vt 0.195855 0.647428
vt 0.201271 0.657560
vt 0.208559 0.666441
vt 0.217440 0.673729
vt 0.227572 0.679145
vt 0.238567 0.682480
vt 0.250000 0.683606
vt 0.261433 0.682480
vt 0.272428 0.679145
vt 0.282560 0.673729
vt 0.708559 0.583559
vt 0.875000 0.500000
vt 0.875000 0.750000
vt 0.708559 0.666441
vt 0.717440 0.673729
vt 0.727572 0.679145
vt 0.738567 0.682480
vt 0.750000 0.683606
vt 0.761433 0.682480
vt 0.772428 0.679145
vt 0.782560 0.673729
vt 0.791441 0.666441
vt 0.798729 0.657560
vt 0.804145 0.647428
vt 0.807480 0.636433
vt 0.808606 0.625000
vt 0.807480 0.613567
vt 0.804145 0.602572
vt 0.798729 0.592440
vt 0.791441 0.583559
vt 0.782560 0.576271
vt 0.772427 0.570855
vt 0.761433 0.567520
vt 0.750000 0.566394
vt 0.738567 0.567520
vt 0.727572 0.570855
vt 0.717440 0.576271
vt 0.701271 0.592440
vt 0.695855 0.602572
vt 0.692520 0.613567
vt 0.691394 0.625000
vt 0.692520 0.636433
vt 0.695855 0.647428
vt 0.701271 0.657560
vt 0.750000 0.566912
vt 0.750000 0.562500
vt 0.718750 0.562500
vt 0.718750 0.566912
vt 0.750000 0.500000
vt 0.718750 0.500000
vt 0.750000 0.437500
vt 0.718750 0.437500
vt 0.718750 0.433088
vt 0.750000 0.433088
vt 0.687500 0.562500
vt 0.687500 0.566912
vt 0.687500 0.500000
vt 0.687500 0.437500
vt 0.687500 0.433088
vt 0.656250 0.433088
vt 0.656250 0.437500
vt 0.656250 0.562500
vt 0.656250 0.566912
vt 0.656250 0.500000
vt 0.625000 0.562500
vt 0.625000 0.566912
vt 0.625000 0.500000
vt 0.625000 0.437500
vt 0.625000 0.433088
vt 0.593750 0.562500
vt 0.593750 0.566912
vt 0.593750 0.500000
vt 0.593750 0.437500
vt 0.593750 0.433088
vt 0.562500 0.562500
vt 0.562500 0.566912
vt 0.562500 0.500000
vt 0.562500 0.437500
vt 0.562500 0.433088
vt 0.531250 0.562500
vt 0.531250 0.566912
vt 0.531250 0.500000
vt 0.531250 0.437500
vt 0.531250 0.433088
vt 0.500000 0.500000
vt 0.500000 0.562500
vt 0.500000 0.437500
vt 0.500000 0.433088
vt 0.500000 0.566912
vt 0.468750 0.562500
vt 0.468750 0.566912
vt 0.468750 0.500000
vt 0.468750 0.437500
vt 0.468750 0.433088
vt 0.437500 0.437500
vt 0.437500 0.500000
vt 0.437500 0.433088
vt 0.437500 0.562500
vt 0.437500 0.566912
vt 0.406250 0.562500
vt 0.406250 0.566912
vt 0.406250 0.500000
vt 0.406250 0.437500
vt 0.406250 0.433088
vt 0.375000 0.437500
vt 0.375000 0.500000
vt 0.375000 0.433088
vt 0.375000 0.562500
vt 0.375000 0.566912
vt 0.343750 0.562500
vt 0.343750 0.566912
vt 0.343750 0.500000
vt 0.343750 0.437500
vt 0.343750 0.433088
vt 0.312500 0.433088
vt 0.312500 0.437500
vt 0.312500 0.562500
vt 0.312500 0.566912
vt 0.312500 0.500000
vt 0.281250 0.562500
vt 0.281250 0.566912
vt 0.281250 0.500000
vt 0.281250 0.437500
vt 0.281250 0.433088
vt 0.250000 0.433088
vt 0.250000 0.437500
vt 0.250000 0.562500
vt 0.250000 0.566912
vt 0.250000 0.500000
vt 0.218750 0.562500
vt 0.218750 0.566912
vt 0.218750 0.500000
vt 0.218750 0.437500
vt 0.218750 0.433088
vt 0.187500 0.562500
vt 0.187500 0.566912
vt 0.187500 0.500000
vt 0.187500 0.437500
vt 0.187500 0.433088
vt 0.156250 0.500000
vt 0.156250 0.562500
vt 0.156250 0.437500
vt 0.156250 0.433088
vt 0.156250 0.566912
vt 0.125000 0.562500
vt 0.125000 0.566912
vt 0.125000 0.500000
vt 0.125000 0.437500
vt 0.125000 0.433088
vt 0.093750 0.500000
vt 0.093750 0.562500
vt 0.093750 0.437500
vt 0.093750 0.433088
vt 0.093750 0.566912
vt 0.062500 0.562500
vt 0.062500 0.566912
vt 0.062500 0.500000
vt 0.062500 0.437500
vt 0.062500 0.433088
vt 0.031250 0.437500
vt 0.031250 0.500000
vt 0.031250 0.433088
vt 0.031250 0.562500
vt 0.031250 0.566912
vt 0.000000 0.562500
vt 0.000000 0.566912
vt 0.000000 0.500000
vt 0.000000 0.437500
vt 0.000000 0.433088
vt 1.000000 0.437500
vt 0.968750 0.437500
vt 0.968750 0.500000
vt 1.000000 0.500000
vt 0.968750 0.433088
vt 1.000000 0.433088
vt 1.000000 0.562500
vt 0.968750 0.562500
vt 0.968750 0.566912
vt 1.000000 0.566912
vt 0.937500 0.562500
vt 0.937500 0.566912
vt 0.937500 0.500000
vt 0.937500 0.437500
vt 0.937500 0.433088
vt 0.906250 0.433088
vt 0.906250 0.437500
vt 0.906250 0.562500
vt 0.906250 0.566912
vt 0.906250 0.500000
vt 0.875000 0.562500
vt 0.875000 0.566912
vt 0.906250 0.566912
vt 0.875000 0.500000
vt 0.875000 0.437500
vt 0.875000 0.433088
vt 0.843750 0.562500
vt 0.843750 0.566912
vt 0.843750 0.500000
vt 0.843750 0.437500
vt 0.843750 0.433088
vt 0.843750 0.566912
vt 0.812500 0.562500
vt 0.812500 0.566912
vt 0.812500 0.500000
vt 0.812500 0.437500
vt 0.812500 0.433088
vt 0.781250 0.562500
vt 0.781250 0.566912
vt 0.781250 0.500000
vt 0.781250 0.437500
vt 0.781250 0.433088
vn -1.0000 0.0000 0.0000
vn 0.0000 0.0000 -1.0000
vn 1.0000 0.0000 0.0000
vn 0.0000 0.0000 1.0000
vn 0.0000 -1.0000 -0.0000
vn 0.0000 1.0000 0.0000
vn -0.0938 -0.2890 0.9527
vn -0.0975 -0.0975 0.9904
vn -0.0975 0.0975 0.9904
vn -0.0938 0.2890 0.9527
vn -0.2779 -0.2890 0.9161
vn -0.2889 -0.0975 0.9524
vn -0.2889 0.0975 0.9524
vn -0.2779 0.2890 0.9161
vn -0.4513 0.2890 0.8443
vn -0.4513 -0.2890 0.8443
vn -0.4691 -0.0975 0.8777
vn -0.4691 0.0975 0.8777
vn -0.6073 -0.2890 0.7400
vn -0.6314 -0.0975 0.7693
vn -0.6314 0.0975 0.7693
vn -0.6073 0.2890 0.7400
vn -0.7400 -0.2890 0.6073
vn -0.7693 -0.0975 0.6314
vn -0.7693 0.0975 0.6314
vn -0.7400 0.2890 0.6073
vn -0.8443 -0.2890 0.4513
vn -0.8777 -0.0975 0.4691
vn -0.8777 0.0975 0.4691
vn -0.8443 0.2890 0.4513
vn -0.9161 -0.2890 0.2779
vn -0.9524 -0.0975 0.2889
vn -0.9524 0.0975 0.2889
vn -0.9161 0.2890 0.2779
vn -0.9904 -0.0975 0.0975
vn -0.9904 0.0975 0.0975
vn -0.9527 0.2890 0.0938
vn -0.9527 -0.2890 0.0938
vn -0.9527 -0.2890 -0.0938
vn -0.9904 -0.0975 -0.0976
vn -0.9904 0.0975 -0.0976
vn -0.9527 0.2890 -0.0938
vn -0.9524 0.0975 -0.2889
vn -0.9161 0.2890 -0.2779
vn -0.9161 -0.2890 -0.2779
vn -0.9524 -0.0975 -0.2889
vn -0.8443 -0.2890 -0.4513
vn -0.8777 -0.0975 -0.4691
vn -0.8777 0.0975 -0.4691
vn -0.8443 0.2890 -0.4513
vn -0.7693 0.0975 -0.6314
vn -0.7400 0.2890 -0.6073
vn -0.7400 -0.2890 -0.6073
vn -0.7693 -0.0975 -0.6314
vn -0.6073 -0.2890 -0.7400
vn -0.6314 -0.0975 -0.7693
vn -0.6314 0.0975 -0.7693
vn -0.6073 0.2890 -0.7400
vn -0.4513 0.2890 -0.8443
vn -0.4513 -0.2890 -0.8443
vn -0.4691 -0.0975 -0.8777
vn -0.4691 0.0975 -0.8777
vn -0.2779 -0.2890 -0.9161
vn -0.2889 -0.0975 -0.9524
vn -0.2889 0.0975 -0.9524
vn -0.2779 0.2890 -0.9161
vn -0.0938 0.2890 -0.9527
vn -0.0938 -0.2890 -0.9527
vn -0.0975 -0.0975 -0.9904
vn -0.0975 0.0975 -0.9904
vn 0.0938 -0.2890 -0.9527
vn 0.0975 -0.0975 -0.9904
vn 0.0976 0.0975 -0.9904
vn 0.0938 0.2890 -0.9527
vn 0.2779 -0.2890 -0.9161
vn 0.2889 -0.0975 -0.9524
vn 0.2889 0.0975 -0.9524
vn 0.2779 0.2890 -0.9161
vn 0.4691 -0.0975 -0.8777
vn 0.4691 0.0975 -0.8777
vn 0.4513 0.2890 -0.8443
vn 0.4513 -0.2890 -0.8443
vn 0.6073 -0.2890 -0.7400
vn 0.6314 -0.0975 -0.7693
vn 0.6314 0.0975 -0.7693
vn 0.6073 0.2890 -0.7400
vn 0.7693 -0.0975 -0.6314
vn 0.7693 0.0975 -0.6314
vn 0.7400 0.2890 -0.6073
vn 0.7400 -0.2890 -0.6073
vn 0.8443 -0.2890 -0.4513
vn 0.8777 -0.0975 -0.4691
vn 0.8777 0.0975 -0.4691
vn 0.8443 0.2890 -0.4513
vn 0.9524 0.0975 -0.2889
vn 0.9161 0.2890 -0.2779
vn 0.9161 -0.2890 -0.2779
vn 0.9524 -0.0975 -0.2889
vn 0.9527 -0.2890 -0.0938
vn 0.9904 -0.0975 -0.0975
vn 0.9904 0.0975 -0.0975
vn 0.9527 0.2890 -0.0938
vn 0.9904 0.0975 0.0976
vn 0.9527 0.2890 0.0938
vn 0.9527 -0.2890 0.0938
vn 0.9904 -0.0975 0.0976
vn 0.9161 -0.2890 0.2779
vn 0.9524 -0.0975 0.2889
vn 0.9524 0.0975 0.2889
vn 0.9161 0.2890 0.2779
vn 0.8443 0.2890 0.4513
vn 0.8443 -0.2890 0.4513
vn 0.8777 -0.0975 0.4691
vn 0.8777 0.0975 0.4691
vn 0.7400 -0.2890 0.6073
vn 0.7693 -0.0975 0.6314
vn 0.7693 0.0975 0.6314
vn 0.7400 0.2890 0.6073
vn 0.6073 -0.2890 0.7400
vn 0.6314 -0.0975 0.7693
vn 0.6314 0.0975 0.7693
vn 0.6073 0.2890 0.7400
vn 0.4513 -0.2890 0.8443
vn 0.4691 -0.0975 0.8777
vn 0.4691 0.0975 0.8777
vn 0.4513 0.2890 0.8443
vn 0.2779 -0.2890 0.9161
vn 0.2889 -0.0975 0.9524
vn 0.2889 0.0975 0.9524
vn 0.2779 0.2890 0.9161
vn 0.0976 -0.0975 0.9904
vn 0.0975 0.0975 0.9904
vn 0.0938 0.2890 0.9527
vn 0.0938 -0.2890 0.9527
usemtl None
s off
f 1/1/1 2/2/1 4/3/1 3/4/1
f 3/4/2 4/3/2 8/5/2 7/6/2
f 7/6/3 8/5/3 6/7/3 5/8/3
f 5/8/4 6/7/4 2/9/4 1/10/4
f 134/11/5 7/6/5 5/8/5 146/12/5 126/13/5 132/14/5 129/15/5 106/16/5 130/17/5 131/18/5 127/19/5
f 5/8/5 1/20/5 3/21/5 7/6/5 134/11/5 122/22/5 123/23/5 125/24/5 121/25/5 120/26/5 118/27/5 119/28/5 115/29/5 137/30/5 135/31/5 111/32/5 107/33/5 145/34/5 149/35/5 147/36/5 148/37/5 139/38/5 136/39/5 124/40/5 116/41/5 151/42/5 150/43/5 152/44/5 146/12/5
f 166/45/6 8/5/6 4/46/6 2/47/6 6/7/6 153/48/6 155/49/6 160/50/6 105/51/6 109/52/6 113/53/6 133/54/6 142/55/6 144/56/6 156/57/6 158/58/6 161/59/6 112/60/6 117/61/6 128/62/6 140/63/6 143/64/6 154/65/6 157/66/6 159/67/6 165/68/6 162/69/6 164/70/6 163/71/6
f 6/7/6 8/5/6 166/45/6 167/72/6 168/73/6 108/74/6 110/75/6 114/76/6 138/77/6 141/78/6 153/48/6
f 165/79/7 9/80/7 10/81/7 162/82/7
f 103/83/8 11/84/8 10/81/8 9/80/8
f 104/85/9 12/86/9 11/84/9 103/83/9
f 125/87/10 12/86/10 104/85/10 121/88/10
f 10/81/11 13/89/11 164/90/11 162/82/11
f 11/84/12 14/91/12 13/89/12 10/81/12
f 12/86/13 15/92/13 14/91/13 11/84/13
f 123/93/14 15/92/14 12/86/14 125/87/14
f 122/94/15 18/95/15 15/92/15 123/93/15
f 13/89/16 16/96/16 163/97/16 164/90/16
f 14/91/17 17/98/17 16/96/17 13/89/17
f 15/92/18 18/95/18 17/98/18 14/91/18
f 16/96/19 19/99/19 166/100/19 163/97/19
f 17/98/20 20/101/20 19/99/20 16/96/20
f 18/95/21 21/102/21 20/101/21 17/98/21
f 134/103/22 21/102/22 18/95/22 122/94/22
f 166/100/23 19/99/23 22/104/23 167/105/23
f 20/101/24 23/106/24 22/104/24 19/99/24
f 21/102/25 24/107/25 23/106/25 20/101/25
f 127/108/26 24/107/26 21/102/26 134/103/26
f 167/105/27 22/104/27 25/109/27 168/110/27
f 23/106/28 26/111/28 25/109/28 22/104/28
f 24/107/29 27/112/29 26/111/29 23/106/29
f 131/113/30 27/112/30 24/107/30 127/108/30
f 168/110/31 25/109/31 28/114/31 108/115/31
f 26/111/32 29/116/32 28/114/32 25/109/32
f 27/112/33 30/117/33 29/116/33 26/111/33
f 130/118/34 30/117/34 27/112/34 131/113/34
f 29/116/35 32/119/35 31/120/35 28/114/35
f 30/117/36 33/121/36 32/119/36 29/116/36
f 106/122/37 33/121/37 30/117/37 130/118/37
f 28/114/38 31/120/38 110/123/38 108/115/38
f 31/120/39 34/124/39 114/125/39 110/123/39
f 32/119/40 35/126/40 34/124/40 31/120/40
f 33/121/41 36/127/41 35/126/41 32/119/41
f 36/127/42 33/121/42 106/122/42 129/128/42
f 36/127/43 39/129/43 38/130/43 35/126/43
f 39/129/44 36/127/44 129/128/44 132/131/44
f 34/124/45 37/132/45 138/133/45 114/125/45
f 35/126/46 38/130/46 37/132/46 34/124/46
f 37/132/47 40/134/47 141/135/47 138/133/47
f 38/130/48 41/136/48 40/134/48 37/132/48
f 39/129/49 42/137/49 41/136/49 38/130/49
f 42/137/50 39/129/50 132/131/50 126/138/50
f 42/137/51 45/139/51 44/140/51 41/136/51
f 45/139/52 42/137/52 126/138/52 146/141/52
f 40/134/53 43/142/53 153/143/53 141/135/53
f 41/136/54 44/140/54 43/142/54 40/134/54
f 153/143/55 43/142/55 46/144/55 155/145/55
f 44/140/56 47/146/56 46/144/56 43/142/56
f 45/139/57 48/147/57 47/146/57 44/140/57
f 152/148/58 48/147/58 45/139/58 146/141/58
f 150/149/59 51/150/59 48/147/59 152/148/59
f 155/145/60 46/144/60 49/151/60 160/152/60
f 47/146/61 50/153/61 49/151/61 46/144/61
f 48/147/62 51/150/62 50/153/62 47/146/62
f 160/152/63 49/151/63 52/154/63 105/155/63
f 50/153/64 53/156/64 52/154/64 49/151/64
f 51/150/65 54/157/65 53/156/65 50/153/65
f 151/158/66 54/157/66 51/150/66 150/149/66
f 116/159/67 57/160/67 54/157/67 151/158/67
f 52/154/68 55/161/68 109/162/68 105/155/68
f 53/156/69 56/163/69 55/161/69 52/154/69
f 54/157/70 57/160/70 56/163/70 53/156/70
f 55/161/71 58/164/71 113/165/71 109/162/71
f 56/163/72 59/166/72 58/164/72 55/161/72
f 57/160/73 60/167/73 59/166/73 56/163/73
f 60/167/74 57/160/74 116/159/74 124/168/74
f 58/164/75 61/169/75 133/170/75 113/165/75
f 59/166/76 62/171/76 61/169/76 58/164/76
f 60/167/77 63/172/77 62/171/77 59/166/77
f 63/172/78 60/167/78 124/168/78 136/173/78
f 62/171/79 65/174/79 64/175/79 61/169/79
f 63/172/80 66/176/80 65/174/80 62/171/80
f 66/176/81 63/172/81 136/173/81 139/177/81
f 61/169/82 64/175/82 142/178/82 133/170/82
f 64/175/83 67/179/83 144/180/83 142/178/83
f 65/174/84 68/181/84 67/179/84 64/175/84
f 66/176/85 69/182/85 68/181/85 65/174/85
f 69/182/86 66/176/86 139/177/86 148/183/86
f 68/181/87 71/184/87 70/185/87 67/179/87
f 69/182/88 72/186/88 71/184/88 68/181/88
f 147/187/89 72/186/89 69/182/89 148/183/89
f 144/180/90 67/179/90 70/185/90 156/188/90
f 156/188/91 70/185/91 73/189/91 158/190/91
f 71/184/92 74/191/92 73/189/92 70/185/92
f 72/186/93 75/192/93 74/191/93 71/184/93
f 149/193/94 75/192/94 72/186/94 147/187/94
f 75/192/95 78/194/95 77/195/95 74/191/95
f 145/196/96 78/194/96 75/192/96 149/193/96
f 158/190/97 73/189/97 76/197/97 161/198/97
f 74/191/98 77/195/98 76/197/98 73/189/98
f 161/198/99 76/197/99 79/199/99 112/200/99
f 77/195/100 80/201/100 79/199/100 76/197/100
f 78/194/101 81/202/101 80/201/101 77/195/101
f 107/203/102 81/202/102 78/194/102 145/196/102
f 81/204/103 84/205/103 83/206/103 80/207/103
f 111/208/104 84/205/104 81/204/104 107/209/104
f 79/210/105 82/211/105 117/212/105 112/213/105
f 80/207/106 83/206/106 82/211/106 79/210/106
f 82/211/107 85/214/107 128/215/107 117/212/107
f 83/206/108 86/216/108 85/214/108 82/211/108
f 84/205/109 87/217/109 86/216/109 83/206/109
f 135/218/110 87/217/110 84/205/110 111/208/110
f 137/219/111 90/220/111 87/217/111 135/218/111
f 85/214/112 88/221/112 140/222/112 128/215/112
f 86/216/113 89/223/113 88/221/113 85/214/113
f 87/217/114 90/220/114 89/223/114 86/216/114
f 88/221/115 91/224/115 143/225/115 140/226/115
f 89/223/116 92/227/116 91/224/116 88/221/116
f 90/220/117 93/228/117 92/227/117 89/223/117
f 115/229/118 93/228/118 90/220/118 137/219/118
f 143/225/119 91/224/119 94/230/119 154/231/119
f 92/227/120 95/232/120 94/230/120 91/224/120
f 93/228/121 96/233/121 95/232/121 92/227/121
f 119/234/122 96/233/122 93/228/122 115/229/122
f 154/235/123 94/230/123 97/236/123 157/237/123
f 95/232/124 98/238/124 97/236/124 94/230/124
f 96/233/125 99/239/125 98/238/125 95/232/125
f 118/240/126 99/239/126 96/233/126 119/234/126
f 157/237/127 97/236/127 100/241/127 159/242/127
f 98/238/128 101/243/128 100/241/128 97/236/128
f 99/239/129 102/244/129 101/243/129 98/238/129
f 120/245/130 102/244/130 99/239/130 118/240/130
f 101/243/131 103/83/131 9/80/131 100/241/131
f 102/244/132 104/85/132 103/83/132 101/243/132
f 121/88/133 104/85/133 102/244/133 120/245/133
f 159/242/134 100/241/134 9/80/134 165/79/134
o Плоскость
v -1.500000 -0.239380 1.500000
v 1.500000 -0.239380 1.500000
v -1.500000 -0.239380 -1.500000
v 1.500000 -0.239380 -1.500000
vt 0.000000 0.000000
vt 1.000000 0.000000
vt 1.000000 1.000000
vt 0.000000 1.000000
vn 0.0000 1.0000 0.0000
usemtl None
s off
f 169/246/135 170/247/135 172/248/135 171/249/135
